HIERARCHY
ROOT Hips
{
	OFFSET 0.00000 0.00000 0.00000
	CHANNELS 6 Xposition Yposition Zposition Zrotation Yrotation Xrotation 
	JOINT LHipJoint
	{
		OFFSET 0 0 0
		CHANNELS 3 Zrotation Yrotation Xrotation
		JOINT LeftHip
		{
			OFFSET 1.36443 -1.53315 0.80540
			CHANNELS 3 Zrotation Yrotation Xrotation
			JOINT LeftKnee
			{
				OFFSET 2.27494 -6.25036 0.00000
				CHANNELS 3 Zrotation Yrotation Xrotation
				JOINT LeftAnkle
				{
					OFFSET 2.17461 -5.97470 0.00000
					CHANNELS 3 Zrotation Yrotation Xrotation
					JOINT LeftToe
					{
						OFFSET 0.22144 -0.60841 2.08966
						CHANNELS 3 Zrotation Yrotation Xrotation
						End Site
						{
							OFFSET 0.00000 -0.00000 1.09206
						}
					}
				}
			}
		}
	}
	JOINT RHipJoint
	{
		OFFSET 0 0 0
		CHANNELS 3 Zrotation Yrotation Xrotation
		JOINT RightHip
		{
			OFFSET -1.29957 -1.53315 0.80539
			CHANNELS 3 Zrotation Yrotation Xrotation
			JOINT RightKnee
			{
				OFFSET -2.23917 -6.15209 0.00000
				CHANNELS 3 Zrotation Yrotation Xrotation
				JOINT RightAnkle
				{
					OFFSET -2.18029 -5.99030 0.00000
					CHANNELS 3 Zrotation Yrotation Xrotation
					JOINT RightToe
					{
						OFFSET -0.22354 -0.61416 1.89975
						CHANNELS 3 Zrotation Yrotation Xrotation
						End Site
						{
							OFFSET -0.00000 -0.00000 1.00221
						}
					}
				}
			}
		}
	}
	JOINT lowerback
	{
		OFFSET 0 0 0
		CHANNELS 3 Zrotation Yrotation Xrotation
		JOINT Chest
		{
			OFFSET -0.04725 2.10352 -0.01215
			CHANNELS 3 Zrotation Yrotation Xrotation
			JOINT Chest2
			{
				OFFSET 0.04471 2.09612 -0.07192
				CHANNELS 3 Zrotation Yrotation Xrotation
				JOINT lowerneck
				{
					OFFSET 0 0 0
					CHANNELS 3 Zrotation Yrotation Xrotation
					JOINT Neck
					{
						OFFSET -0.01586 1.38087 0.11506
						CHANNELS 3 Zrotation Yrotation Xrotation
						JOINT Head
						{
							OFFSET -0.01055 1.38869 -0.12115
							CHANNELS 3 Zrotation Yrotation Xrotation
							End Site
							{
								OFFSET -0.00310 1.39537 -0.05348
							}
						}
					}
				}
				JOINT LeftCollar
				{
					OFFSET 0 0 0
					CHANNELS 3 Zrotation Yrotation Xrotation
					JOINT LeftShoulder
					{
						OFFSET 2.71932 0.62535 0.37316
CHANNELS 3 Zrotation Xrotation Yrotation
						JOINT LeftElbow
						{
OFFSET 0 -4.473660 0.000000
CHANNELS 3 Zrotation Xrotation Yrotation
							JOINT LeftWrist
							{
OFFSET 0 -3.199480 -0.000000
CHANNELS 3 Zrotation Xrotation Yrotation
								JOINT lhand
								{
									OFFSET 0 0 0
CHANNELS 3 Zrotation Xrotation Yrotation
									JOINT LFingers
									{
OFFSET 0 -0.492670 -0.000000
CHANNELS 3 Zrotation Xrotation Yrotation
										End Site
										{
OFFSET 0 -0.397200 -0.000000
										}
									}
								}
								JOINT LThumb
								{
OFFSET 0 0.000000 0.000000
CHANNELS 3 Zrotation Xrotation Yrotation
									End Site
									{
OFFSET 0 -0.403270 0.403270
									}
								}
							}
						}
					}
				}
				JOINT RightCollar
				{
					OFFSET 0 0 0
					CHANNELS 3 Zrotation Yrotation Xrotation
					JOINT RightShoulder
					{
						OFFSET -2.97334 0.70851 0.47631
CHANNELS 3 Zrotation Xrotation Yrotation
						JOINT RightElbow
						{
OFFSET 0 -4.326900 -0.000000
CHANNELS 3 Zrotation Xrotation Yrotation
							JOINT RightWrist
							{
OFFSET 0 -3.189600 0.000000
CHANNELS 3 Zrotation Xrotation Yrotation
								JOINT rhand
								{
									OFFSET 0 0 0
CHANNELS 3 Zrotation Xrotation Yrotation
									JOINT RFingers
									{
OFFSET 0 -0.464500 -0.000000
CHANNELS 3 Zrotation Xrotation Yrotation
										End Site
										{
OFFSET 0 -0.374490 -0.000000
										}
									}
								}
								JOINT RThumb
								{
OFFSET 0 0.000000 0.000000
CHANNELS 3 Zrotation Xrotation Yrotation
									End Site
									{
OFFSET 0 -0.380210 0.380210
									}
								}
							}
						}
					}
				}
			}
		}
	}
}
MOTION
Frames: 5
Frame Time: 0.008333333333333333
7.854500 14.654000 2.588200 2.103400 -1.933100 -9.523600 0.000000 0.000000 0.000000 -15.233300 4.488800 -10.666500 6.567700 14.956800 47.219800 2.130100 -2.465700 -26.964600 0.650100 -5.157500 -14.358400 0.000000 0.000000 0.000000 18.640200 -0.462200 -8.576700 -6.449700 -14.850400 46.761000 -1.335500 -9.969700 -27.493700 -0.670500 5.236300 -14.583700 -3.665100 -0.263800 -3.291000 1.435500 -0.207600 3.827000 3.537500 -0.295700 5.848900 -2.248900 -1.942900 -9.981700 0.425300 -2.333200 9.498400 0.337800 -1.203700 4.510100 -0.000000 0.000000 0.000000 66.331800 -61.106600 -11.299200 15.168800 -24.380800 3.295300 26.190700 -6.949400 -0.723600 0.000000 0.000000 0.000000 -7.125000 0.000000 0.000000 -0.299300 30.786000 -0.103900 -0.000000 0.000000 0.000000 -56.569600 -72.886500 -13.247700 -8.095300 -13.707200 -0.974600 -21.596200 45.624800 18.464700 0.000000 0.000000 0.000000 7.125000 0.000000 -0.000000 6.466000 49.624300 -0.740000
7.853289 14.654078 2.588473 2.116018 -1.919544 -9.533640 0.000000 0.000000 0.000000 -15.242246 4.498293 -10.648647 6.562465 14.952112 47.199447 2.127131 -2.466481 -26.944911 0.650569 -5.159297 -14.363518 0.000000 0.000000 0.000000 18.628402 -0.487788 -8.568965 -6.456419 -14.856494 46.787135 -1.328937 -9.977474 -27.452721 -0.682571 5.282006 -14.714724 -3.677835 -0.261573 -3.260099 1.425343 -0.204553 3.812546 3.534140 -0.293473 5.815656 -2.252338 -1.945947 -10.008069 0.433894 -2.337185 9.544848 0.340222 -1.205380 4.528968 0.000000 0.000000 0.000000 66.269569 -61.117499 -11.261971 15.149150 -24.353493 3.287214 26.076825 -6.893849 -0.653908 0.000000 0.000000 0.000000 -7.125000 0.000000 0.000000 -0.389150 30.707674 -0.136090 0.000000 0.000000 0.000000 -56.550224 -72.846732 -13.161757 -8.097019 -13.709974 -0.974991 -21.591004 45.508230 18.463411 0.000000 0.000000 0.000000 7.125000 0.000000 0.000000 6.470688 49.622190 -0.740195
7.852078 14.654156 2.588747 2.128636 -1.905989 -9.543679 0.000000 0.000000 0.000000 -15.251192 4.507786 -10.630794 6.557231 14.947424 47.179094 2.124162 -2.467263 -26.925222 0.651038 -5.161094 -14.368635 0.000000 0.000000 0.000000 18.616605 -0.513375 -8.561230 -6.463138 -14.862588 46.813269 -1.322374 -9.985248 -27.411741 -0.694642 5.327712 -14.845749 -3.690570 -0.259347 -3.229199 1.415186 -0.201506 3.798092 3.530781 -0.291247 5.782411 -2.255775 -1.948994 -10.034438 0.442489 -2.341169 9.591297 0.342644 -1.207060 4.547837 0.000000 0.000000 0.000000 66.207339 -61.128398 -11.224742 15.129501 -24.326187 3.279127 25.962950 -6.838299 -0.584216 0.000000 0.000000 0.000000 -7.125000 0.000000 0.000000 -0.478999 30.629349 -0.168279 0.000000 0.000000 0.000000 -56.530847 -72.806963 -13.075814 -8.098738 -13.712747 -0.975381 -21.585809 45.391659 18.462122 0.000000 0.000000 0.000000 7.125000 0.000000 0.000000 6.475376 49.620081 -0.740391
7.850884 14.654320 2.588986 2.139792 -1.894634 -9.548320 0.000000 0.000000 0.000000 -15.258263 4.514940 -10.620628 6.553509 14.944095 47.164639 2.122259 -2.471105 -26.911793 0.656992 -5.183972 -14.434091 0.000000 0.000000 0.000000 18.607627 -0.528938 -8.556625 -6.466556 -14.865708 46.826610 -1.319302 -9.980985 -27.386565 -0.696259 5.333835 -14.863301 -3.698611 -0.255366 -3.204403 1.402312 -0.196034 3.781781 3.522142 -0.287558 5.750422 -2.243927 -1.953365 -10.057488 0.439579 -2.347991 9.639344 0.338893 -1.210304 4.566361 0.000000 0.000000 0.000000 66.160549 -61.125799 -11.232840 15.122592 -24.316592 3.276285 25.885856 -6.829915 -0.535760 0.000000 0.000000 0.000000 -7.125000 0.000000 0.000000 -0.539772 30.574959 -0.190152 0.000000 0.000000 0.000000 -56.500655 -72.769448 -13.020392 -8.097189 -13.710242 -0.975015 -21.620008 45.352141 18.505850 0.000000 0.000000 0.000000 7.125000 0.000000 0.000000 6.453961 49.671415 -0.745951
7.849712 14.654594 2.589181 2.149090 -1.886079 -9.546093 0.000000 0.000000 0.000000 -15.262951 4.519120 -10.620237 6.551712 14.942493 47.157686 2.121712 -2.478840 -26.906324 0.669922 -5.233663 -14.576288 0.000000 0.000000 0.000000 18.602236 -0.531751 -8.556000 -6.465775 -14.865044 46.823680 -1.320669 -9.961414 -27.381486 -0.684578 5.289613 -14.736535 -3.700682 -0.249155 -3.187370 1.385983 -0.187479 3.763108 3.506790 -0.282011 5.720029 -2.212635 -1.959420 -10.076318 0.422039 -2.358422 9.689426 0.327291 -1.215539 4.584449 0.000000 0.000000 0.000000 66.133399 -61.106032 -11.298586 15.131890 -24.329522 3.280114 25.855542 -6.881520 -0.514313 0.000000 0.000000 0.000000 -7.125000 0.000000 0.000000 -0.563563 30.551012 -0.198902 0.000000 0.000000 0.000000 -56.456707 -72.734797 -13.003789 -8.091486 -13.701023 -0.973687 -21.704310 45.410622 18.606833 0.000000 0.000000 0.000000 7.125000 0.000000 0.000000 6.399348 49.790719 -0.758335
